<mxfile host="app.diagrams.net" modified="2023-04-05T18:01:50.926Z" agent="Mozilla/5.0 (Windows NT 10.0; Win64; x64) AppleWebKit/537.36 (KHTML, like Gecko) Chrome/111.0.0.0 Safari/537.36" etag="eguKXoFBbVgMaXDbiLqm" version="21.1.4" type="device">
  <diagram name="หน้า-1" id="BjFPoe7H6GLihcnsMjLV">
    <mxGraphModel dx="2100" dy="1192" grid="1" gridSize="10" guides="1" tooltips="1" connect="1" arrows="1" fold="1" page="1" pageScale="1" pageWidth="1900" pageHeight="1920" math="0" shadow="0">
      <root>
        <mxCell id="0" />
        <mxCell id="1" parent="0" />
        <mxCell id="6db4KR-rdE-GNf7xicQE-1" value="Have" style="shape=rhombus;perimeter=rhombusPerimeter;whiteSpace=wrap;html=1;align=center;" vertex="1" parent="1">
          <mxGeometry x="1200" y="500" width="120" height="60" as="geometry" />
        </mxCell>
        <mxCell id="6db4KR-rdE-GNf7xicQE-2" value="applications" style="whiteSpace=wrap;html=1;align=center;" vertex="1" parent="1">
          <mxGeometry x="470" y="280" width="90" height="40" as="geometry" />
        </mxCell>
        <mxCell id="6db4KR-rdE-GNf7xicQE-3" value="national_id" style="ellipse;whiteSpace=wrap;html=1;align=center;" vertex="1" parent="1">
          <mxGeometry x="350" y="70" width="100" height="40" as="geometry" />
        </mxCell>
        <mxCell id="6db4KR-rdE-GNf7xicQE-4" value="&lt;u style=&quot;border-color: var(--border-color);&quot;&gt;app_id&lt;/u&gt;" style="ellipse;whiteSpace=wrap;html=1;align=center;fontStyle=4;" vertex="1" parent="1">
          <mxGeometry x="220" y="70" width="100" height="40" as="geometry" />
        </mxCell>
        <mxCell id="6db4KR-rdE-GNf7xicQE-5" value="Lname_th" style="ellipse;whiteSpace=wrap;html=1;align=center;" vertex="1" parent="1">
          <mxGeometry x="300" y="570" width="100" height="40" as="geometry" />
        </mxCell>
        <mxCell id="6db4KR-rdE-GNf7xicQE-6" value="Fname_en" style="ellipse;whiteSpace=wrap;html=1;align=center;" vertex="1" parent="1">
          <mxGeometry x="70" y="350" width="100" height="40" as="geometry" />
        </mxCell>
        <mxCell id="6db4KR-rdE-GNf7xicQE-7" value="Nationality" style="ellipse;whiteSpace=wrap;html=1;align=center;" vertex="1" parent="1">
          <mxGeometry x="460" y="60" width="100" height="40" as="geometry" />
        </mxCell>
        <mxCell id="6db4KR-rdE-GNf7xicQE-8" value="Religion" style="ellipse;whiteSpace=wrap;html=1;align=center;" vertex="1" parent="1">
          <mxGeometry x="710" y="210" width="100" height="40" as="geometry" />
        </mxCell>
        <mxCell id="6db4KR-rdE-GNf7xicQE-9" value="Parents_occupation" style="ellipse;whiteSpace=wrap;html=1;align=center;" vertex="1" parent="1">
          <mxGeometry x="90" y="110" width="100" height="40" as="geometry" />
        </mxCell>
        <mxCell id="6db4KR-rdE-GNf7xicQE-10" value="Telephone_home" style="ellipse;whiteSpace=wrap;html=1;align=center;" vertex="1" parent="1">
          <mxGeometry x="40" y="190" width="100" height="40" as="geometry" />
        </mxCell>
        <mxCell id="6db4KR-rdE-GNf7xicQE-11" value="&lt;br&gt;&lt;table style=&quot;border-color: var(--bs-table-border-color); caption-side: top; border-collapse: collapse; --bs-table-color: var(--bs-body-color); --bs-table-bg: #fff; --bs-table-border-color: #fff; --bs-table-accent-bg: transparent; --bs-table-striped-color: var(--bs-body-color); --bs-table-striped-bg: #dfdfdf; --bs-table-active-color: var(--bs-body-color); --bs-table-active-bg: rgba(0, 0, 0, 0.1); --bs-table-hover-color: #000; --bs-table-hover-bg: rgba(0, 0, 0, 0.075); margin-bottom: 1rem; color: rgb(68, 68, 68); font-family: sans-serif; font-size: 13.12px; text-align: left; background-color: rgb(255, 255, 255); width: auto !important; vertical-align: middle !important;&quot; class=&quot;table table-striped table-hover w-auto align-middle&quot; id=&quot;tablestructure&quot;&gt;&lt;tbody style=&quot;border-color: inherit; box-sizing: border-box; border-style: solid; border-width: 0px; vertical-align: inherit;&quot;&gt;&lt;tr style=&quot;border-color: inherit; box-sizing: border-box; border-style: solid; border-width: 0px;&quot;&gt;&lt;th style=&quot;border-color: inherit; box-sizing: border-box; text-align: left; border-style: solid; border-width: 0px; padding: 0.1em 0.3em; background-color: var(--bs-table-bg); box-shadow: inset 0 0 0 9999px var(--bs-table-accent-bg); text-shadow: rgb(255, 255, 255) 0px 1px 0px; vertical-align: middle; color: rgb(0, 0, 0);&quot; class=&quot;text-nowrap&quot;&gt;&lt;label style=&quot;border-color: var(--border-color); box-sizing: border-box; display: inline-block; font-weight: normal;&quot; for=&quot;checkbox_row_9&quot;&gt;Lname_en&lt;/label&gt;&lt;/th&gt;&lt;/tr&gt;&lt;/tbody&gt;&lt;/table&gt;" style="ellipse;whiteSpace=wrap;html=1;align=center;" vertex="1" parent="1">
          <mxGeometry x="110" y="250" width="100" height="40" as="geometry" />
        </mxCell>
        <mxCell id="6db4KR-rdE-GNf7xicQE-12" value="Telephone_number" style="ellipse;whiteSpace=wrap;html=1;align=center;" vertex="1" parent="1">
          <mxGeometry x="90" y="40" width="100" height="40" as="geometry" />
        </mxCell>
        <mxCell id="6db4KR-rdE-GNf7xicQE-13" value="Prefix_en" style="ellipse;whiteSpace=wrap;html=1;align=center;" vertex="1" parent="1">
          <mxGeometry x="70" y="480" width="100" height="40" as="geometry" />
        </mxCell>
        <mxCell id="6db4KR-rdE-GNf7xicQE-14" value="Email" style="ellipse;whiteSpace=wrap;html=1;align=center;rotation=-1;" vertex="1" parent="1">
          <mxGeometry x="40" y="420" width="100" height="40" as="geometry" />
        </mxCell>
        <mxCell id="6db4KR-rdE-GNf7xicQE-15" value="Fname_th" style="ellipse;whiteSpace=wrap;html=1;align=center;" vertex="1" parent="1">
          <mxGeometry x="180" y="560" width="80" height="40" as="geometry" />
        </mxCell>
        <mxCell id="6db4KR-rdE-GNf7xicQE-16" value="Income_parents" style="ellipse;whiteSpace=wrap;html=1;align=center;" vertex="1" parent="1">
          <mxGeometry x="100" y="490" width="100" height="40" as="geometry" />
        </mxCell>
        <mxCell id="6db4KR-rdE-GNf7xicQE-17" value="TCAS_round" style="ellipse;whiteSpace=wrap;html=1;align=center;" vertex="1" parent="1">
          <mxGeometry x="600" y="200" width="100" height="40" as="geometry" />
        </mxCell>
        <mxCell id="6db4KR-rdE-GNf7xicQE-18" value="Prefix_th" style="ellipse;whiteSpace=wrap;html=1;align=center;" vertex="1" parent="1">
          <mxGeometry x="50" y="300" width="100" height="40" as="geometry" />
        </mxCell>
        <mxCell id="6db4KR-rdE-GNf7xicQE-19" value="Ethnicity" style="ellipse;whiteSpace=wrap;html=1;align=center;" vertex="1" parent="1">
          <mxGeometry x="570" y="80" width="100" height="40" as="geometry" />
        </mxCell>
        <mxCell id="6db4KR-rdE-GNf7xicQE-20" value="Bday" style="ellipse;whiteSpace=wrap;html=1;align=center;" vertex="1" parent="1">
          <mxGeometry x="610" y="140" width="100" height="40" as="geometry" />
        </mxCell>
        <mxCell id="6db4KR-rdE-GNf7xicQE-21" value="" style="endArrow=none;html=1;rounded=0;entryX=1;entryY=1;entryDx=0;entryDy=0;exitX=0;exitY=0;exitDx=0;exitDy=0;" edge="1" parent="1" source="6db4KR-rdE-GNf7xicQE-2" target="6db4KR-rdE-GNf7xicQE-4">
          <mxGeometry relative="1" as="geometry">
            <mxPoint x="710" y="350" as="sourcePoint" />
            <mxPoint x="870" y="350" as="targetPoint" />
          </mxGeometry>
        </mxCell>
        <mxCell id="6db4KR-rdE-GNf7xicQE-22" value="" style="endArrow=none;html=1;rounded=0;exitX=0.25;exitY=0;exitDx=0;exitDy=0;entryX=0.5;entryY=1;entryDx=0;entryDy=0;" edge="1" parent="1" source="6db4KR-rdE-GNf7xicQE-2" target="6db4KR-rdE-GNf7xicQE-3">
          <mxGeometry relative="1" as="geometry">
            <mxPoint x="480" y="290" as="sourcePoint" />
            <mxPoint x="500" y="220" as="targetPoint" />
          </mxGeometry>
        </mxCell>
        <mxCell id="6db4KR-rdE-GNf7xicQE-23" value="" style="endArrow=none;html=1;rounded=0;exitX=0.5;exitY=0;exitDx=0;exitDy=0;entryX=0;entryY=0.5;entryDx=0;entryDy=0;" edge="1" parent="1" source="6db4KR-rdE-GNf7xicQE-2" target="6db4KR-rdE-GNf7xicQE-17">
          <mxGeometry relative="1" as="geometry">
            <mxPoint x="503" y="290" as="sourcePoint" />
            <mxPoint x="520" y="240" as="targetPoint" />
          </mxGeometry>
        </mxCell>
        <mxCell id="6db4KR-rdE-GNf7xicQE-24" value="" style="endArrow=none;html=1;rounded=0;exitX=0.5;exitY=0;exitDx=0;exitDy=0;entryX=0;entryY=0.5;entryDx=0;entryDy=0;" edge="1" parent="1" source="6db4KR-rdE-GNf7xicQE-2" target="6db4KR-rdE-GNf7xicQE-20">
          <mxGeometry relative="1" as="geometry">
            <mxPoint x="525" y="290" as="sourcePoint" />
            <mxPoint x="570" y="260" as="targetPoint" />
          </mxGeometry>
        </mxCell>
        <mxCell id="6db4KR-rdE-GNf7xicQE-25" value="" style="endArrow=none;html=1;rounded=0;exitX=0.5;exitY=0;exitDx=0;exitDy=0;entryX=0.75;entryY=1;entryDx=0;entryDy=0;" edge="1" parent="1" source="6db4KR-rdE-GNf7xicQE-15" target="6db4KR-rdE-GNf7xicQE-2">
          <mxGeometry relative="1" as="geometry">
            <mxPoint x="525" y="290" as="sourcePoint" />
            <mxPoint x="590" y="200" as="targetPoint" />
          </mxGeometry>
        </mxCell>
        <mxCell id="6db4KR-rdE-GNf7xicQE-26" value="" style="endArrow=none;html=1;rounded=0;entryX=0.5;entryY=1;entryDx=0;entryDy=0;" edge="1" parent="1" source="6db4KR-rdE-GNf7xicQE-16" target="6db4KR-rdE-GNf7xicQE-2">
          <mxGeometry relative="1" as="geometry">
            <mxPoint x="575" y="386" as="sourcePoint" />
            <mxPoint x="548" y="330" as="targetPoint" />
          </mxGeometry>
        </mxCell>
        <mxCell id="6db4KR-rdE-GNf7xicQE-27" value="" style="endArrow=none;html=1;rounded=0;entryX=0.146;entryY=1.012;entryDx=0;entryDy=0;entryPerimeter=0;" edge="1" parent="1" target="6db4KR-rdE-GNf7xicQE-2">
          <mxGeometry relative="1" as="geometry">
            <mxPoint x="84.80549777168608" y="485.64129629880927" as="sourcePoint" />
            <mxPoint x="525" y="330" as="targetPoint" />
          </mxGeometry>
        </mxCell>
        <mxCell id="6db4KR-rdE-GNf7xicQE-28" value="" style="endArrow=none;html=1;rounded=0;entryX=0;entryY=0.5;entryDx=0;entryDy=0;exitX=1;exitY=0.5;exitDx=0;exitDy=0;" edge="1" parent="1" source="6db4KR-rdE-GNf7xicQE-18" target="6db4KR-rdE-GNf7xicQE-2">
          <mxGeometry relative="1" as="geometry">
            <mxPoint x="468" y="390" as="sourcePoint" />
            <mxPoint x="493" y="330" as="targetPoint" />
          </mxGeometry>
        </mxCell>
        <mxCell id="6db4KR-rdE-GNf7xicQE-29" value="" style="endArrow=none;html=1;rounded=0;exitX=1;exitY=1;exitDx=0;exitDy=0;" edge="1" parent="1" source="6db4KR-rdE-GNf7xicQE-9">
          <mxGeometry relative="1" as="geometry">
            <mxPoint x="420" y="350" as="sourcePoint" />
            <mxPoint x="470" y="300" as="targetPoint" />
          </mxGeometry>
        </mxCell>
        <mxCell id="6db4KR-rdE-GNf7xicQE-30" value="" style="endArrow=none;html=1;rounded=0;entryX=1;entryY=0.5;entryDx=0;entryDy=0;exitX=0;exitY=0.5;exitDx=0;exitDy=0;" edge="1" parent="1" source="6db4KR-rdE-GNf7xicQE-2" target="6db4KR-rdE-GNf7xicQE-11">
          <mxGeometry relative="1" as="geometry">
            <mxPoint x="710" y="350" as="sourcePoint" />
            <mxPoint x="870" y="350" as="targetPoint" />
          </mxGeometry>
        </mxCell>
        <mxCell id="6db4KR-rdE-GNf7xicQE-31" value="" style="endArrow=none;html=1;rounded=0;entryX=1;entryY=0.5;entryDx=0;entryDy=0;exitX=0;exitY=0.25;exitDx=0;exitDy=0;" edge="1" parent="1" source="6db4KR-rdE-GNf7xicQE-2" target="6db4KR-rdE-GNf7xicQE-10">
          <mxGeometry relative="1" as="geometry">
            <mxPoint x="480" y="310" as="sourcePoint" />
            <mxPoint x="300" y="330" as="targetPoint" />
          </mxGeometry>
        </mxCell>
        <mxCell id="6db4KR-rdE-GNf7xicQE-32" value="" style="endArrow=none;html=1;rounded=0;exitX=1;exitY=1;exitDx=0;exitDy=0;entryX=0;entryY=0.25;entryDx=0;entryDy=0;" edge="1" parent="1" source="6db4KR-rdE-GNf7xicQE-12" target="6db4KR-rdE-GNf7xicQE-2">
          <mxGeometry relative="1" as="geometry">
            <mxPoint x="315" y="254" as="sourcePoint" />
            <mxPoint x="480" y="310" as="targetPoint" />
          </mxGeometry>
        </mxCell>
        <mxCell id="6db4KR-rdE-GNf7xicQE-33" value="" style="endArrow=none;html=1;rounded=0;exitX=1;exitY=0.5;exitDx=0;exitDy=0;entryX=0.036;entryY=0.722;entryDx=0;entryDy=0;entryPerimeter=0;" edge="1" parent="1" source="6db4KR-rdE-GNf7xicQE-2" target="6db4KR-rdE-GNf7xicQE-8">
          <mxGeometry relative="1" as="geometry">
            <mxPoint x="575" y="386" as="sourcePoint" />
            <mxPoint x="548" y="330" as="targetPoint" />
          </mxGeometry>
        </mxCell>
        <mxCell id="6db4KR-rdE-GNf7xicQE-34" value="" style="endArrow=none;html=1;rounded=0;exitX=0.5;exitY=0;exitDx=0;exitDy=0;entryX=0;entryY=1;entryDx=0;entryDy=0;" edge="1" parent="1" source="6db4KR-rdE-GNf7xicQE-2" target="6db4KR-rdE-GNf7xicQE-19">
          <mxGeometry relative="1" as="geometry">
            <mxPoint x="525" y="290" as="sourcePoint" />
            <mxPoint x="590" y="200" as="targetPoint" />
          </mxGeometry>
        </mxCell>
        <mxCell id="6db4KR-rdE-GNf7xicQE-35" value="" style="endArrow=none;html=1;rounded=0;exitX=0.25;exitY=0;exitDx=0;exitDy=0;entryX=0.5;entryY=1;entryDx=0;entryDy=0;" edge="1" parent="1" source="6db4KR-rdE-GNf7xicQE-2" target="6db4KR-rdE-GNf7xicQE-7">
          <mxGeometry relative="1" as="geometry">
            <mxPoint x="525" y="290" as="sourcePoint" />
            <mxPoint x="575" y="154" as="targetPoint" />
          </mxGeometry>
        </mxCell>
        <mxCell id="6db4KR-rdE-GNf7xicQE-36" value="" style="endArrow=none;html=1;rounded=0;entryX=0;entryY=1;entryDx=0;entryDy=0;exitX=1;exitY=0.5;exitDx=0;exitDy=0;" edge="1" parent="1" source="6db4KR-rdE-GNf7xicQE-6" target="6db4KR-rdE-GNf7xicQE-2">
          <mxGeometry relative="1" as="geometry">
            <mxPoint x="468" y="390" as="sourcePoint" />
            <mxPoint x="493" y="330" as="targetPoint" />
          </mxGeometry>
        </mxCell>
        <mxCell id="6db4KR-rdE-GNf7xicQE-37" value="" style="endArrow=none;html=1;rounded=0;entryX=0.25;entryY=1;entryDx=0;entryDy=0;exitX=0.5;exitY=0;exitDx=0;exitDy=0;" edge="1" parent="1" source="6db4KR-rdE-GNf7xicQE-14" target="6db4KR-rdE-GNf7xicQE-2">
          <mxGeometry relative="1" as="geometry">
            <mxPoint x="360" y="400" as="sourcePoint" />
            <mxPoint x="480" y="330" as="targetPoint" />
          </mxGeometry>
        </mxCell>
        <mxCell id="6db4KR-rdE-GNf7xicQE-38" value="" style="endArrow=none;html=1;rounded=0;exitX=0.5;exitY=0;exitDx=0;exitDy=0;entryX=1;entryY=1;entryDx=0;entryDy=0;" edge="1" parent="1" source="6db4KR-rdE-GNf7xicQE-5" target="6db4KR-rdE-GNf7xicQE-2">
          <mxGeometry relative="1" as="geometry">
            <mxPoint x="575" y="386" as="sourcePoint" />
            <mxPoint x="548" y="330" as="targetPoint" />
          </mxGeometry>
        </mxCell>
        <mxCell id="6db4KR-rdE-GNf7xicQE-40" value="" style="shape=link;html=1;rounded=0;exitX=1;exitY=0.75;exitDx=0;exitDy=0;entryX=0;entryY=0.5;entryDx=0;entryDy=0;" edge="1" parent="1" source="6db4KR-rdE-GNf7xicQE-2" target="6db4KR-rdE-GNf7xicQE-1">
          <mxGeometry relative="1" as="geometry">
            <mxPoint x="850" y="520" as="sourcePoint" />
            <mxPoint x="1010" y="520" as="targetPoint" />
          </mxGeometry>
        </mxCell>
        <mxCell id="6db4KR-rdE-GNf7xicQE-41" value="1" style="resizable=0;html=1;whiteSpace=wrap;align=right;verticalAlign=bottom;" connectable="0" vertex="1" parent="6db4KR-rdE-GNf7xicQE-40">
          <mxGeometry x="1" relative="1" as="geometry">
            <mxPoint y="-10" as="offset" />
          </mxGeometry>
        </mxCell>
        <mxCell id="6db4KR-rdE-GNf7xicQE-43" value="adress_nation" style="whiteSpace=wrap;html=1;align=center;" vertex="1" parent="1">
          <mxGeometry x="1210" y="710" width="100" height="40" as="geometry" />
        </mxCell>
        <mxCell id="6db4KR-rdE-GNf7xicQE-44" value="street" style="ellipse;whiteSpace=wrap;html=1;align=center;" vertex="1" parent="1">
          <mxGeometry x="1420" y="670" width="100" height="40" as="geometry" />
        </mxCell>
        <mxCell id="6db4KR-rdE-GNf7xicQE-45" value="&lt;u style=&quot;border-color: var(--border-color);&quot;&gt;address_id&lt;/u&gt;" style="ellipse;whiteSpace=wrap;html=1;align=center;" vertex="1" parent="1">
          <mxGeometry x="1130" y="620" width="100" height="40" as="geometry" />
        </mxCell>
        <mxCell id="6db4KR-rdE-GNf7xicQE-46" value="house_number" style="ellipse;whiteSpace=wrap;html=1;align=center;" vertex="1" parent="1">
          <mxGeometry x="1300" y="630" width="100" height="40" as="geometry" />
        </mxCell>
        <mxCell id="6db4KR-rdE-GNf7xicQE-47" value="Province" style="ellipse;whiteSpace=wrap;html=1;align=center;" vertex="1" parent="1">
          <mxGeometry x="1320" y="780" width="100" height="40" as="geometry" />
        </mxCell>
        <mxCell id="6db4KR-rdE-GNf7xicQE-48" value="group" style="ellipse;whiteSpace=wrap;html=1;align=center;" vertex="1" parent="1">
          <mxGeometry x="1410" y="730" width="100" height="40" as="geometry" />
        </mxCell>
        <mxCell id="6db4KR-rdE-GNf7xicQE-49" value="national_id" style="ellipse;whiteSpace=wrap;html=1;align=center;" vertex="1" parent="1">
          <mxGeometry x="1010" y="780" width="100" height="40" as="geometry" />
        </mxCell>
        <mxCell id="6db4KR-rdE-GNf7xicQE-50" value="District" style="ellipse;whiteSpace=wrap;html=1;align=center;" vertex="1" parent="1">
          <mxGeometry x="980" y="700" width="100" height="40" as="geometry" />
        </mxCell>
        <mxCell id="6db4KR-rdE-GNf7xicQE-51" value="Post_code" style="ellipse;whiteSpace=wrap;html=1;align=center;" vertex="1" parent="1">
          <mxGeometry x="1330" y="840" width="100" height="40" as="geometry" />
        </mxCell>
        <mxCell id="6db4KR-rdE-GNf7xicQE-52" value="Sub_district" style="ellipse;whiteSpace=wrap;html=1;align=center;" vertex="1" parent="1">
          <mxGeometry x="1100" y="850" width="100" height="40" as="geometry" />
        </mxCell>
        <mxCell id="6db4KR-rdE-GNf7xicQE-53" value="N" style="resizable=0;html=1;whiteSpace=wrap;align=right;verticalAlign=bottom;" connectable="0" vertex="1" parent="1">
          <mxGeometry x="1240" y="1030" as="geometry" />
        </mxCell>
        <mxCell id="6db4KR-rdE-GNf7xicQE-54" value="" style="endArrow=none;html=1;rounded=0;exitX=0.25;exitY=0;exitDx=0;exitDy=0;entryX=0.5;entryY=1;entryDx=0;entryDy=0;" edge="1" parent="1" source="6db4KR-rdE-GNf7xicQE-43" target="6db4KR-rdE-GNf7xicQE-45">
          <mxGeometry relative="1" as="geometry">
            <mxPoint x="740" y="740" as="sourcePoint" />
            <mxPoint x="894" y="679" as="targetPoint" />
          </mxGeometry>
        </mxCell>
        <mxCell id="6db4KR-rdE-GNf7xicQE-55" value="" style="endArrow=none;html=1;rounded=0;entryX=1;entryY=0;entryDx=0;entryDy=0;exitX=0;exitY=1;exitDx=0;exitDy=0;" edge="1" parent="1" source="6db4KR-rdE-GNf7xicQE-43" target="6db4KR-rdE-GNf7xicQE-49">
          <mxGeometry relative="1" as="geometry">
            <mxPoint x="1250" y="710" as="sourcePoint" />
            <mxPoint x="1190" y="670" as="targetPoint" />
          </mxGeometry>
        </mxCell>
        <mxCell id="6db4KR-rdE-GNf7xicQE-56" value="" style="endArrow=none;html=1;rounded=0;entryX=0.5;entryY=1;entryDx=0;entryDy=0;exitX=0.5;exitY=0;exitDx=0;exitDy=0;" edge="1" parent="1" source="6db4KR-rdE-GNf7xicQE-43" target="6db4KR-rdE-GNf7xicQE-46">
          <mxGeometry relative="1" as="geometry">
            <mxPoint x="1260" y="720" as="sourcePoint" />
            <mxPoint x="1315" y="594" as="targetPoint" />
          </mxGeometry>
        </mxCell>
        <mxCell id="6db4KR-rdE-GNf7xicQE-57" value="" style="endArrow=none;html=1;rounded=0;entryX=0;entryY=0.5;entryDx=0;entryDy=0;exitX=1;exitY=0;exitDx=0;exitDy=0;" edge="1" parent="1" source="6db4KR-rdE-GNf7xicQE-43">
          <mxGeometry relative="1" as="geometry">
            <mxPoint x="1270" y="720" as="sourcePoint" />
            <mxPoint x="1420" y="690" as="targetPoint" />
          </mxGeometry>
        </mxCell>
        <mxCell id="6db4KR-rdE-GNf7xicQE-58" value="" style="endArrow=none;html=1;rounded=0;entryX=0.021;entryY=0.332;entryDx=0;entryDy=0;exitX=1;exitY=0.25;exitDx=0;exitDy=0;entryPerimeter=0;" edge="1" parent="1" source="6db4KR-rdE-GNf7xicQE-43">
          <mxGeometry relative="1" as="geometry">
            <mxPoint x="1320" y="720" as="sourcePoint" />
            <mxPoint x="1412.1" y="743.2800000000002" as="targetPoint" />
          </mxGeometry>
        </mxCell>
        <mxCell id="6db4KR-rdE-GNf7xicQE-59" value="" style="endArrow=none;html=1;rounded=0;entryX=0.5;entryY=0;entryDx=0;entryDy=0;exitX=1;exitY=1;exitDx=0;exitDy=0;" edge="1" parent="1" source="6db4KR-rdE-GNf7xicQE-43" target="6db4KR-rdE-GNf7xicQE-47">
          <mxGeometry relative="1" as="geometry">
            <mxPoint x="1320" y="730" as="sourcePoint" />
            <mxPoint x="1422" y="753" as="targetPoint" />
          </mxGeometry>
        </mxCell>
        <mxCell id="6db4KR-rdE-GNf7xicQE-60" value="" style="endArrow=none;html=1;rounded=0;entryX=0.5;entryY=0;entryDx=0;entryDy=0;exitX=0;exitY=0.25;exitDx=0;exitDy=0;" edge="1" parent="1" source="6db4KR-rdE-GNf7xicQE-43" target="6db4KR-rdE-GNf7xicQE-50">
          <mxGeometry relative="1" as="geometry">
            <mxPoint x="1320" y="760" as="sourcePoint" />
            <mxPoint x="1380" y="790" as="targetPoint" />
          </mxGeometry>
        </mxCell>
        <mxCell id="6db4KR-rdE-GNf7xicQE-61" value="" style="endArrow=none;html=1;rounded=0;entryX=0.5;entryY=0;entryDx=0;entryDy=0;exitX=0.25;exitY=1;exitDx=0;exitDy=0;" edge="1" parent="1" source="6db4KR-rdE-GNf7xicQE-43" target="6db4KR-rdE-GNf7xicQE-52">
          <mxGeometry relative="1" as="geometry">
            <mxPoint x="1220" y="760" as="sourcePoint" />
            <mxPoint x="1190" y="800" as="targetPoint" />
          </mxGeometry>
        </mxCell>
        <mxCell id="6db4KR-rdE-GNf7xicQE-62" value="" style="endArrow=none;html=1;rounded=0;entryX=0;entryY=0.5;entryDx=0;entryDy=0;exitX=0.75;exitY=1;exitDx=0;exitDy=0;" edge="1" parent="1" source="6db4KR-rdE-GNf7xicQE-43" target="6db4KR-rdE-GNf7xicQE-51">
          <mxGeometry relative="1" as="geometry">
            <mxPoint x="1270" y="760" as="sourcePoint" />
            <mxPoint x="1240" y="860" as="targetPoint" />
          </mxGeometry>
        </mxCell>
        <mxCell id="6db4KR-rdE-GNf7xicQE-63" value="amphures" style="whiteSpace=wrap;html=1;align=center;" vertex="1" parent="1">
          <mxGeometry x="1200" y="1090" width="100" height="40" as="geometry" />
        </mxCell>
        <mxCell id="6db4KR-rdE-GNf7xicQE-64" value="Have" style="shape=rhombus;perimeter=rhombusPerimeter;whiteSpace=wrap;html=1;align=center;" vertex="1" parent="1">
          <mxGeometry x="1190" y="880" width="120" height="60" as="geometry" />
        </mxCell>
        <mxCell id="6db4KR-rdE-GNf7xicQE-65" value="Code" style="ellipse;whiteSpace=wrap;html=1;align=center;" vertex="1" parent="1">
          <mxGeometry x="1310" y="1020" width="100" height="40" as="geometry" />
        </mxCell>
        <mxCell id="6db4KR-rdE-GNf7xicQE-66" value="name_th" style="ellipse;whiteSpace=wrap;html=1;align=center;" vertex="1" parent="1">
          <mxGeometry x="1080" y="1030" width="100" height="40" as="geometry" />
        </mxCell>
        <mxCell id="6db4KR-rdE-GNf7xicQE-67" value="&lt;u style=&quot;border-color: var(--border-color);&quot;&gt;id&lt;/u&gt;" style="ellipse;whiteSpace=wrap;html=1;align=center;" vertex="1" parent="1">
          <mxGeometry x="1380" y="1070" width="100" height="40" as="geometry" />
        </mxCell>
        <mxCell id="6db4KR-rdE-GNf7xicQE-68" value="name_en" style="ellipse;whiteSpace=wrap;html=1;align=center;" vertex="1" parent="1">
          <mxGeometry x="1060" y="1090" width="100" height="40" as="geometry" />
        </mxCell>
        <mxCell id="6db4KR-rdE-GNf7xicQE-69" value="province_id" style="ellipse;whiteSpace=wrap;html=1;align=center;" vertex="1" parent="1">
          <mxGeometry x="1110" y="1140" width="100" height="40" as="geometry" />
        </mxCell>
        <mxCell id="6db4KR-rdE-GNf7xicQE-70" value="" style="endArrow=none;html=1;rounded=0;entryX=1;entryY=0;entryDx=0;entryDy=0;exitX=0.5;exitY=1;exitDx=0;exitDy=0;" edge="1" parent="1" source="6db4KR-rdE-GNf7xicQE-63" target="6db4KR-rdE-GNf7xicQE-69">
          <mxGeometry relative="1" as="geometry">
            <mxPoint x="1660" y="1150" as="sourcePoint" />
            <mxPoint x="1580" y="1180" as="targetPoint" />
          </mxGeometry>
        </mxCell>
        <mxCell id="6db4KR-rdE-GNf7xicQE-71" value="" style="endArrow=none;html=1;rounded=0;entryX=1;entryY=0.5;entryDx=0;entryDy=0;exitX=0;exitY=0.5;exitDx=0;exitDy=0;" edge="1" parent="1" source="6db4KR-rdE-GNf7xicQE-63" target="6db4KR-rdE-GNf7xicQE-68">
          <mxGeometry relative="1" as="geometry">
            <mxPoint x="1250" y="1140" as="sourcePoint" />
            <mxPoint x="1185" y="1176" as="targetPoint" />
          </mxGeometry>
        </mxCell>
        <mxCell id="6db4KR-rdE-GNf7xicQE-72" value="" style="endArrow=none;html=1;rounded=0;entryX=0.784;entryY=0.959;entryDx=0;entryDy=0;exitX=0;exitY=0;exitDx=0;exitDy=0;entryPerimeter=0;" edge="1" parent="1" source="6db4KR-rdE-GNf7xicQE-63" target="6db4KR-rdE-GNf7xicQE-66">
          <mxGeometry relative="1" as="geometry">
            <mxPoint x="1200" y="1120" as="sourcePoint" />
            <mxPoint x="1140" y="1120" as="targetPoint" />
          </mxGeometry>
        </mxCell>
        <mxCell id="6db4KR-rdE-GNf7xicQE-73" value="" style="endArrow=none;html=1;rounded=0;entryX=0.5;entryY=1;entryDx=0;entryDy=0;exitX=0.5;exitY=0;exitDx=0;exitDy=0;" edge="1" parent="1" source="6db4KR-rdE-GNf7xicQE-63" target="6db4KR-rdE-GNf7xicQE-65">
          <mxGeometry relative="1" as="geometry">
            <mxPoint x="1200" y="1100" as="sourcePoint" />
            <mxPoint x="1138" y="1048" as="targetPoint" />
          </mxGeometry>
        </mxCell>
        <mxCell id="6db4KR-rdE-GNf7xicQE-74" value="" style="endArrow=none;html=1;rounded=0;entryX=0;entryY=0.5;entryDx=0;entryDy=0;exitX=0.75;exitY=0;exitDx=0;exitDy=0;" edge="1" parent="1" source="6db4KR-rdE-GNf7xicQE-63" target="6db4KR-rdE-GNf7xicQE-67">
          <mxGeometry relative="1" as="geometry">
            <mxPoint x="1250" y="1100" as="sourcePoint" />
            <mxPoint x="1250" y="1040" as="targetPoint" />
          </mxGeometry>
        </mxCell>
        <mxCell id="6db4KR-rdE-GNf7xicQE-75" value="" style="endArrow=none;html=1;rounded=0;" edge="1" parent="1" source="6db4KR-rdE-GNf7xicQE-64">
          <mxGeometry relative="1" as="geometry">
            <mxPoint x="1080" y="730" as="sourcePoint" />
            <mxPoint x="1250" y="750" as="targetPoint" />
          </mxGeometry>
        </mxCell>
        <mxCell id="6db4KR-rdE-GNf7xicQE-77" value="districts" style="whiteSpace=wrap;html=1;align=center;" vertex="1" parent="1">
          <mxGeometry x="1190" y="1270" width="100" height="40" as="geometry" />
        </mxCell>
        <mxCell id="6db4KR-rdE-GNf7xicQE-78" value="Code" style="ellipse;whiteSpace=wrap;html=1;align=center;" vertex="1" parent="1">
          <mxGeometry x="1360" y="1230" width="100" height="40" as="geometry" />
        </mxCell>
        <mxCell id="6db4KR-rdE-GNf7xicQE-79" value="name_th" style="ellipse;whiteSpace=wrap;html=1;align=center;" vertex="1" parent="1">
          <mxGeometry x="1050" y="1210" width="100" height="40" as="geometry" />
        </mxCell>
        <mxCell id="6db4KR-rdE-GNf7xicQE-80" value="&lt;u style=&quot;border-color: var(--border-color);&quot;&gt;id&lt;/u&gt;" style="ellipse;whiteSpace=wrap;html=1;align=center;" vertex="1" parent="1">
          <mxGeometry x="1040" y="1330" width="100" height="40" as="geometry" />
        </mxCell>
        <mxCell id="6db4KR-rdE-GNf7xicQE-81" value="name_en" style="ellipse;whiteSpace=wrap;html=1;align=center;" vertex="1" parent="1">
          <mxGeometry x="1030" y="1270" width="100" height="40" as="geometry" />
        </mxCell>
        <mxCell id="6db4KR-rdE-GNf7xicQE-82" value="amphure_id" style="ellipse;whiteSpace=wrap;html=1;align=center;" vertex="1" parent="1">
          <mxGeometry x="1360" y="1290" width="100" height="40" as="geometry" />
        </mxCell>
        <mxCell id="6db4KR-rdE-GNf7xicQE-83" value="" style="endArrow=none;html=1;rounded=0;entryX=0;entryY=0.5;entryDx=0;entryDy=0;exitX=1;exitY=0.75;exitDx=0;exitDy=0;" edge="1" parent="1" source="6db4KR-rdE-GNf7xicQE-77" target="6db4KR-rdE-GNf7xicQE-82">
          <mxGeometry relative="1" as="geometry">
            <mxPoint x="1630" y="1330" as="sourcePoint" />
            <mxPoint x="1165.0802126497501" y="1325.7486636110389" as="targetPoint" />
          </mxGeometry>
        </mxCell>
        <mxCell id="6db4KR-rdE-GNf7xicQE-84" value="" style="endArrow=none;html=1;rounded=0;entryX=1;entryY=0.5;entryDx=0;entryDy=0;exitX=0;exitY=0.5;exitDx=0;exitDy=0;" edge="1" parent="1" source="6db4KR-rdE-GNf7xicQE-77" target="6db4KR-rdE-GNf7xicQE-81">
          <mxGeometry relative="1" as="geometry">
            <mxPoint x="1220" y="1320" as="sourcePoint" />
            <mxPoint x="1155" y="1356" as="targetPoint" />
          </mxGeometry>
        </mxCell>
        <mxCell id="6db4KR-rdE-GNf7xicQE-85" value="" style="endArrow=none;html=1;rounded=0;entryX=0.784;entryY=0.959;entryDx=0;entryDy=0;exitX=0;exitY=0;exitDx=0;exitDy=0;entryPerimeter=0;" edge="1" parent="1" source="6db4KR-rdE-GNf7xicQE-77" target="6db4KR-rdE-GNf7xicQE-79">
          <mxGeometry relative="1" as="geometry">
            <mxPoint x="1170" y="1300" as="sourcePoint" />
            <mxPoint x="1110" y="1300" as="targetPoint" />
          </mxGeometry>
        </mxCell>
        <mxCell id="6db4KR-rdE-GNf7xicQE-86" value="" style="endArrow=none;html=1;rounded=0;exitX=1;exitY=0.25;exitDx=0;exitDy=0;" edge="1" parent="1" source="6db4KR-rdE-GNf7xicQE-77" target="6db4KR-rdE-GNf7xicQE-78">
          <mxGeometry relative="1" as="geometry">
            <mxPoint x="1170" y="1280" as="sourcePoint" />
            <mxPoint x="1120" y="1380" as="targetPoint" />
          </mxGeometry>
        </mxCell>
        <mxCell id="6db4KR-rdE-GNf7xicQE-87" value="" style="endArrow=none;html=1;rounded=0;entryX=0;entryY=1;entryDx=0;entryDy=0;exitX=1;exitY=0.5;exitDx=0;exitDy=0;" edge="1" parent="1" source="6db4KR-rdE-GNf7xicQE-80" target="6db4KR-rdE-GNf7xicQE-77">
          <mxGeometry relative="1" as="geometry">
            <mxPoint x="1080" y="1340" as="sourcePoint" />
            <mxPoint x="1250" y="1370" as="targetPoint" />
          </mxGeometry>
        </mxCell>
        <mxCell id="6db4KR-rdE-GNf7xicQE-88" value="province" style="whiteSpace=wrap;html=1;align=center;" vertex="1" parent="1">
          <mxGeometry x="1190" y="1450" width="100" height="40" as="geometry" />
        </mxCell>
        <mxCell id="6db4KR-rdE-GNf7xicQE-89" value="name_th" style="ellipse;whiteSpace=wrap;html=1;align=center;" vertex="1" parent="1">
          <mxGeometry x="1030" y="1400" width="100" height="40" as="geometry" />
        </mxCell>
        <mxCell id="6db4KR-rdE-GNf7xicQE-90" value="&lt;u style=&quot;border-color: var(--border-color);&quot;&gt;id&lt;/u&gt;" style="ellipse;whiteSpace=wrap;html=1;align=center;" vertex="1" parent="1">
          <mxGeometry x="1340" y="1490" width="100" height="40" as="geometry" />
        </mxCell>
        <mxCell id="6db4KR-rdE-GNf7xicQE-91" value="name_en" style="ellipse;whiteSpace=wrap;html=1;align=center;" vertex="1" parent="1">
          <mxGeometry x="1030" y="1500" width="100" height="40" as="geometry" />
        </mxCell>
        <mxCell id="6db4KR-rdE-GNf7xicQE-92" value="geography_id" style="ellipse;whiteSpace=wrap;html=1;align=center;" vertex="1" parent="1">
          <mxGeometry x="1380" y="1400" width="100" height="40" as="geometry" />
        </mxCell>
        <mxCell id="6db4KR-rdE-GNf7xicQE-93" value="" style="endArrow=none;html=1;rounded=0;entryX=0;entryY=0.5;entryDx=0;entryDy=0;exitX=1;exitY=0.5;exitDx=0;exitDy=0;" edge="1" parent="1" source="6db4KR-rdE-GNf7xicQE-88" target="6db4KR-rdE-GNf7xicQE-92">
          <mxGeometry relative="1" as="geometry">
            <mxPoint x="1580" y="1640" as="sourcePoint" />
            <mxPoint x="1115.0802126497501" y="1635.7486636110389" as="targetPoint" />
          </mxGeometry>
        </mxCell>
        <mxCell id="6db4KR-rdE-GNf7xicQE-94" value="" style="endArrow=none;html=1;rounded=0;entryX=1;entryY=0.5;entryDx=0;entryDy=0;exitX=0;exitY=0.5;exitDx=0;exitDy=0;" edge="1" parent="1" source="6db4KR-rdE-GNf7xicQE-88" target="6db4KR-rdE-GNf7xicQE-91">
          <mxGeometry relative="1" as="geometry">
            <mxPoint x="1170" y="1630" as="sourcePoint" />
            <mxPoint x="940" y="1490" as="targetPoint" />
          </mxGeometry>
        </mxCell>
        <mxCell id="6db4KR-rdE-GNf7xicQE-95" value="" style="endArrow=none;html=1;rounded=0;entryX=1;entryY=0.5;entryDx=0;entryDy=0;exitX=0;exitY=0;exitDx=0;exitDy=0;" edge="1" parent="1" source="6db4KR-rdE-GNf7xicQE-88" target="6db4KR-rdE-GNf7xicQE-89">
          <mxGeometry relative="1" as="geometry">
            <mxPoint x="1120" y="1610" as="sourcePoint" />
            <mxPoint x="1060" y="1610" as="targetPoint" />
          </mxGeometry>
        </mxCell>
        <mxCell id="6db4KR-rdE-GNf7xicQE-96" value="" style="endArrow=none;html=1;rounded=0;exitX=0.75;exitY=1;exitDx=0;exitDy=0;" edge="1" parent="1" source="6db4KR-rdE-GNf7xicQE-88" target="6db4KR-rdE-GNf7xicQE-90">
          <mxGeometry relative="1" as="geometry">
            <mxPoint x="1160" y="1620" as="sourcePoint" />
            <mxPoint x="909" y="1525" as="targetPoint" />
          </mxGeometry>
        </mxCell>
        <mxCell id="6db4KR-rdE-GNf7xicQE-98" value="Have" style="shape=rhombus;perimeter=rhombusPerimeter;whiteSpace=wrap;html=1;align=center;" vertex="1" parent="1">
          <mxGeometry x="1190" y="1180" width="100" height="50" as="geometry" />
        </mxCell>
        <mxCell id="6db4KR-rdE-GNf7xicQE-99" value="Have" style="shape=rhombus;perimeter=rhombusPerimeter;whiteSpace=wrap;html=1;align=center;" vertex="1" parent="1">
          <mxGeometry x="1190" y="1360" width="100" height="50" as="geometry" />
        </mxCell>
        <mxCell id="6db4KR-rdE-GNf7xicQE-100" value="" style="endArrow=none;html=1;rounded=0;exitX=0.5;exitY=0;exitDx=0;exitDy=0;entryX=0.5;entryY=1;entryDx=0;entryDy=0;" edge="1" parent="1" source="6db4KR-rdE-GNf7xicQE-63" target="6db4KR-rdE-GNf7xicQE-64">
          <mxGeometry relative="1" as="geometry">
            <mxPoint x="600" y="730" as="sourcePoint" />
            <mxPoint x="1130" y="960" as="targetPoint" />
          </mxGeometry>
        </mxCell>
        <mxCell id="6db4KR-rdE-GNf7xicQE-101" value="1" style="resizable=0;html=1;whiteSpace=wrap;align=right;verticalAlign=bottom;" connectable="0" vertex="1" parent="6db4KR-rdE-GNf7xicQE-100">
          <mxGeometry x="1" relative="1" as="geometry">
            <mxPoint x="-10" y="-139" as="offset" />
          </mxGeometry>
        </mxCell>
        <mxCell id="6db4KR-rdE-GNf7xicQE-102" value="" style="endArrow=none;html=1;rounded=0;entryX=0.5;entryY=0;entryDx=0;entryDy=0;" edge="1" parent="1" target="6db4KR-rdE-GNf7xicQE-98">
          <mxGeometry relative="1" as="geometry">
            <mxPoint x="1240" y="1130" as="sourcePoint" />
            <mxPoint x="1440" y="1120" as="targetPoint" />
          </mxGeometry>
        </mxCell>
        <mxCell id="6db4KR-rdE-GNf7xicQE-103" value="1" style="resizable=0;html=1;whiteSpace=wrap;align=right;verticalAlign=bottom;" connectable="0" vertex="1" parent="6db4KR-rdE-GNf7xicQE-102">
          <mxGeometry x="1" relative="1" as="geometry" />
        </mxCell>
        <mxCell id="6db4KR-rdE-GNf7xicQE-104" value="" style="endArrow=none;html=1;rounded=0;entryX=0.5;entryY=1;entryDx=0;entryDy=0;exitX=0.5;exitY=0;exitDx=0;exitDy=0;" edge="1" parent="1" source="6db4KR-rdE-GNf7xicQE-77" target="6db4KR-rdE-GNf7xicQE-98">
          <mxGeometry relative="1" as="geometry">
            <mxPoint x="1260" y="1360" as="sourcePoint" />
            <mxPoint x="1370" y="1360" as="targetPoint" />
          </mxGeometry>
        </mxCell>
        <mxCell id="6db4KR-rdE-GNf7xicQE-105" value="N" style="resizable=0;html=1;whiteSpace=wrap;align=right;verticalAlign=bottom;" connectable="0" vertex="1" parent="6db4KR-rdE-GNf7xicQE-104">
          <mxGeometry x="1" relative="1" as="geometry">
            <mxPoint x="-10" y="30" as="offset" />
          </mxGeometry>
        </mxCell>
        <mxCell id="6db4KR-rdE-GNf7xicQE-106" value="" style="endArrow=none;html=1;rounded=0;entryX=0.5;entryY=0;entryDx=0;entryDy=0;" edge="1" parent="1" target="6db4KR-rdE-GNf7xicQE-99">
          <mxGeometry relative="1" as="geometry">
            <mxPoint x="1240" y="1310" as="sourcePoint" />
            <mxPoint x="1250" y="1355" as="targetPoint" />
          </mxGeometry>
        </mxCell>
        <mxCell id="6db4KR-rdE-GNf7xicQE-107" value="1" style="resizable=0;html=1;whiteSpace=wrap;align=right;verticalAlign=bottom;" connectable="0" vertex="1" parent="6db4KR-rdE-GNf7xicQE-106">
          <mxGeometry x="1" relative="1" as="geometry">
            <mxPoint x="10" y="-10" as="offset" />
          </mxGeometry>
        </mxCell>
        <mxCell id="6db4KR-rdE-GNf7xicQE-108" value="" style="endArrow=none;html=1;rounded=0;entryX=0.5;entryY=1;entryDx=0;entryDy=0;exitX=0.5;exitY=0;exitDx=0;exitDy=0;" edge="1" parent="1" source="6db4KR-rdE-GNf7xicQE-88" target="6db4KR-rdE-GNf7xicQE-99">
          <mxGeometry relative="1" as="geometry">
            <mxPoint x="1250" y="1280" as="sourcePoint" />
            <mxPoint x="1250" y="1240" as="targetPoint" />
          </mxGeometry>
        </mxCell>
        <mxCell id="6db4KR-rdE-GNf7xicQE-109" value="N" style="resizable=0;html=1;whiteSpace=wrap;align=right;verticalAlign=bottom;" connectable="0" vertex="1" parent="6db4KR-rdE-GNf7xicQE-108">
          <mxGeometry x="1" relative="1" as="geometry">
            <mxPoint x="-10" y="30" as="offset" />
          </mxGeometry>
        </mxCell>
        <mxCell id="6db4KR-rdE-GNf7xicQE-110" value="" style="endArrow=none;html=1;rounded=0;entryX=0.5;entryY=0;entryDx=0;entryDy=0;" edge="1" parent="1">
          <mxGeometry relative="1" as="geometry">
            <mxPoint x="1240" y="1565" as="sourcePoint" />
            <mxPoint x="1249.47" y="1560" as="targetPoint" />
          </mxGeometry>
        </mxCell>
        <mxCell id="6db4KR-rdE-GNf7xicQE-111" value="1" style="resizable=0;html=1;whiteSpace=wrap;align=right;verticalAlign=bottom;" connectable="0" vertex="1" parent="6db4KR-rdE-GNf7xicQE-110">
          <mxGeometry x="1" relative="1" as="geometry">
            <mxPoint x="21" y="-30" as="offset" />
          </mxGeometry>
        </mxCell>
        <mxCell id="6db4KR-rdE-GNf7xicQE-112" value="" style="endArrow=none;html=1;rounded=0;entryX=0.5;entryY=1;entryDx=0;entryDy=0;exitX=0.5;exitY=0;exitDx=0;exitDy=0;" edge="1" parent="1" source="6db4KR-rdE-GNf7xicQE-116" target="6db4KR-rdE-GNf7xicQE-115">
          <mxGeometry relative="1" as="geometry">
            <mxPoint x="1250" y="1430" as="sourcePoint" />
            <mxPoint x="1250" y="1200" as="targetPoint" />
          </mxGeometry>
        </mxCell>
        <mxCell id="6db4KR-rdE-GNf7xicQE-113" value="N" style="resizable=0;html=1;whiteSpace=wrap;align=right;verticalAlign=bottom;" connectable="0" vertex="1" parent="6db4KR-rdE-GNf7xicQE-112">
          <mxGeometry x="1" relative="1" as="geometry">
            <mxPoint x="-10" y="30" as="offset" />
          </mxGeometry>
        </mxCell>
        <mxCell id="6db4KR-rdE-GNf7xicQE-114" value="" style="endArrow=none;html=1;rounded=0;entryX=0.5;entryY=0;entryDx=0;entryDy=0;" edge="1" parent="1">
          <mxGeometry relative="1" as="geometry">
            <mxPoint x="1240" y="1490" as="sourcePoint" />
            <mxPoint x="1240" y="1540" as="targetPoint" />
          </mxGeometry>
        </mxCell>
        <mxCell id="6db4KR-rdE-GNf7xicQE-115" value="Have" style="shape=rhombus;perimeter=rhombusPerimeter;whiteSpace=wrap;html=1;align=center;" vertex="1" parent="1">
          <mxGeometry x="1190" y="1540" width="100" height="50" as="geometry" />
        </mxCell>
        <mxCell id="6db4KR-rdE-GNf7xicQE-116" value="geographies" style="whiteSpace=wrap;html=1;align=center;" vertex="1" parent="1">
          <mxGeometry x="1190" y="1640" width="100" height="40" as="geometry" />
        </mxCell>
        <mxCell id="6db4KR-rdE-GNf7xicQE-117" value="name" style="ellipse;whiteSpace=wrap;html=1;align=center;" vertex="1" parent="1">
          <mxGeometry x="950" y="1580" width="100" height="40" as="geometry" />
        </mxCell>
        <mxCell id="6db4KR-rdE-GNf7xicQE-118" value="&lt;u style=&quot;border-color: var(--border-color);&quot;&gt;id&lt;/u&gt;" style="ellipse;whiteSpace=wrap;html=1;align=center;" vertex="1" parent="1">
          <mxGeometry x="1020" y="1670" width="100" height="40" as="geometry" />
        </mxCell>
        <mxCell id="6db4KR-rdE-GNf7xicQE-119" value="" style="endArrow=none;html=1;rounded=0;entryX=1;entryY=0.5;entryDx=0;entryDy=0;exitX=0;exitY=0;exitDx=0;exitDy=0;" edge="1" parent="1" source="6db4KR-rdE-GNf7xicQE-116" target="6db4KR-rdE-GNf7xicQE-117">
          <mxGeometry relative="1" as="geometry">
            <mxPoint x="1250" y="1280" as="sourcePoint" />
            <mxPoint x="1056" y="1391" as="targetPoint" />
          </mxGeometry>
        </mxCell>
        <mxCell id="6db4KR-rdE-GNf7xicQE-120" value="" style="endArrow=none;html=1;rounded=0;entryX=1;entryY=0.5;entryDx=0;entryDy=0;exitX=0;exitY=1;exitDx=0;exitDy=0;" edge="1" parent="1" source="6db4KR-rdE-GNf7xicQE-116" target="6db4KR-rdE-GNf7xicQE-118">
          <mxGeometry relative="1" as="geometry">
            <mxPoint x="1200" y="1440" as="sourcePoint" />
            <mxPoint x="1160" y="1430" as="targetPoint" />
          </mxGeometry>
        </mxCell>
        <mxCell id="6db4KR-rdE-GNf7xicQE-121" value="" style="endArrow=none;html=1;rounded=0;exitX=0.5;exitY=1;exitDx=0;exitDy=0;" edge="1" parent="1">
          <mxGeometry relative="1" as="geometry">
            <mxPoint x="1260" y="560" as="sourcePoint" />
            <mxPoint x="1260" y="710" as="targetPoint" />
          </mxGeometry>
        </mxCell>
        <mxCell id="6db4KR-rdE-GNf7xicQE-122" value="N" style="resizable=0;html=1;whiteSpace=wrap;align=right;verticalAlign=bottom;" connectable="0" vertex="1" parent="6db4KR-rdE-GNf7xicQE-121">
          <mxGeometry x="1" relative="1" as="geometry" />
        </mxCell>
        <mxCell id="6db4KR-rdE-GNf7xicQE-125" style="edgeStyle=orthogonalEdgeStyle;rounded=0;orthogonalLoop=1;jettySize=auto;html=1;exitX=0.5;exitY=1;exitDx=0;exitDy=0;" edge="1" parent="1" source="6db4KR-rdE-GNf7xicQE-90" target="6db4KR-rdE-GNf7xicQE-90">
          <mxGeometry relative="1" as="geometry" />
        </mxCell>
        <mxCell id="6db4KR-rdE-GNf7xicQE-127" value="code" style="ellipse;whiteSpace=wrap;html=1;align=center;" vertex="1" parent="1">
          <mxGeometry x="980" y="1450" width="100" height="40" as="geometry" />
        </mxCell>
        <mxCell id="6db4KR-rdE-GNf7xicQE-128" value="" style="endArrow=none;html=1;rounded=0;entryX=1;entryY=0.5;entryDx=0;entryDy=0;" edge="1" parent="1" target="6db4KR-rdE-GNf7xicQE-127">
          <mxGeometry relative="1" as="geometry">
            <mxPoint x="1190" y="1460" as="sourcePoint" />
            <mxPoint x="1030" y="1450" as="targetPoint" />
          </mxGeometry>
        </mxCell>
        <mxCell id="6db4KR-rdE-GNf7xicQE-130" value="Register" style="shape=rhombus;perimeter=rhombusPerimeter;whiteSpace=wrap;html=1;align=center;" vertex="1" parent="1">
          <mxGeometry x="620" y="420" width="120" height="60" as="geometry" />
        </mxCell>
        <mxCell id="6db4KR-rdE-GNf7xicQE-131" value="" style="endArrow=none;html=1;rounded=0;exitX=1;exitY=0.75;exitDx=0;exitDy=0;entryX=0.5;entryY=0;entryDx=0;entryDy=0;" edge="1" parent="1" source="6db4KR-rdE-GNf7xicQE-2" target="6db4KR-rdE-GNf7xicQE-130">
          <mxGeometry relative="1" as="geometry">
            <mxPoint x="650" y="380" as="sourcePoint" />
            <mxPoint x="810" y="380" as="targetPoint" />
          </mxGeometry>
        </mxCell>
        <mxCell id="6db4KR-rdE-GNf7xicQE-132" value="1" style="resizable=0;html=1;whiteSpace=wrap;align=right;verticalAlign=bottom;" connectable="0" vertex="1" parent="6db4KR-rdE-GNf7xicQE-131">
          <mxGeometry x="1" relative="1" as="geometry" />
        </mxCell>
        <mxCell id="6db4KR-rdE-GNf7xicQE-133" value="educational_qualification" style="whiteSpace=wrap;html=1;align=center;" vertex="1" parent="1">
          <mxGeometry x="610" y="540" width="140" height="40" as="geometry" />
        </mxCell>
        <mxCell id="6db4KR-rdE-GNf7xicQE-134" value="" style="endArrow=none;html=1;rounded=0;exitX=0.5;exitY=1;exitDx=0;exitDy=0;entryX=0.5;entryY=0;entryDx=0;entryDy=0;" edge="1" parent="1" source="6db4KR-rdE-GNf7xicQE-130" target="6db4KR-rdE-GNf7xicQE-133">
          <mxGeometry relative="1" as="geometry">
            <mxPoint x="800" y="880" as="sourcePoint" />
            <mxPoint x="960" y="880" as="targetPoint" />
          </mxGeometry>
        </mxCell>
        <mxCell id="6db4KR-rdE-GNf7xicQE-135" value="1" style="resizable=0;html=1;whiteSpace=wrap;align=right;verticalAlign=bottom;" connectable="0" vertex="1" parent="6db4KR-rdE-GNf7xicQE-134">
          <mxGeometry x="1" relative="1" as="geometry" />
        </mxCell>
        <mxCell id="6db4KR-rdE-GNf7xicQE-136" value="education_student" style="ellipse;whiteSpace=wrap;html=1;" vertex="1" parent="1">
          <mxGeometry x="780" y="470" width="100" height="40" as="geometry" />
        </mxCell>
        <mxCell id="6db4KR-rdE-GNf7xicQE-137" value="education_student_round4" style="ellipse;whiteSpace=wrap;html=1;" vertex="1" parent="1">
          <mxGeometry x="400" y="540" width="160" height="40" as="geometry" />
        </mxCell>
        <mxCell id="6db4KR-rdE-GNf7xicQE-138" value="education_student_round2" style="ellipse;whiteSpace=wrap;html=1;" vertex="1" parent="1">
          <mxGeometry x="820" y="540" width="160" height="40" as="geometry" />
        </mxCell>
        <mxCell id="6db4KR-rdE-GNf7xicQE-139" value="" style="endArrow=none;html=1;rounded=0;exitX=1;exitY=0;exitDx=0;exitDy=0;entryX=0;entryY=0.5;entryDx=0;entryDy=0;" edge="1" parent="1" source="6db4KR-rdE-GNf7xicQE-133" target="6db4KR-rdE-GNf7xicQE-136">
          <mxGeometry relative="1" as="geometry">
            <mxPoint x="740" y="640" as="sourcePoint" />
            <mxPoint x="900" y="640" as="targetPoint" />
          </mxGeometry>
        </mxCell>
        <mxCell id="6db4KR-rdE-GNf7xicQE-140" value="" style="endArrow=none;html=1;rounded=0;exitX=1;exitY=0.5;exitDx=0;exitDy=0;entryX=0;entryY=0.5;entryDx=0;entryDy=0;" edge="1" parent="1" source="6db4KR-rdE-GNf7xicQE-133" target="6db4KR-rdE-GNf7xicQE-138">
          <mxGeometry relative="1" as="geometry">
            <mxPoint x="760" y="550" as="sourcePoint" />
            <mxPoint x="790" y="500" as="targetPoint" />
          </mxGeometry>
        </mxCell>
        <mxCell id="6db4KR-rdE-GNf7xicQE-141" value="" style="endArrow=none;html=1;rounded=0;exitX=1;exitY=0.5;exitDx=0;exitDy=0;" edge="1" parent="1" source="6db4KR-rdE-GNf7xicQE-137">
          <mxGeometry relative="1" as="geometry">
            <mxPoint x="760" y="570" as="sourcePoint" />
            <mxPoint x="610" y="560" as="targetPoint" />
          </mxGeometry>
        </mxCell>
        <mxCell id="6db4KR-rdE-GNf7xicQE-142" value="Have" style="shape=rhombus;perimeter=rhombusPerimeter;whiteSpace=wrap;html=1;align=center;" vertex="1" parent="1">
          <mxGeometry x="620" y="630" width="120" height="60" as="geometry" />
        </mxCell>
        <mxCell id="6db4KR-rdE-GNf7xicQE-143" value="" style="endArrow=none;html=1;rounded=0;exitX=0.5;exitY=1;exitDx=0;exitDy=0;" edge="1" parent="1" source="6db4KR-rdE-GNf7xicQE-133" target="6db4KR-rdE-GNf7xicQE-142">
          <mxGeometry relative="1" as="geometry">
            <mxPoint x="610" y="490" as="sourcePoint" />
            <mxPoint x="770" y="490" as="targetPoint" />
          </mxGeometry>
        </mxCell>
        <mxCell id="6db4KR-rdE-GNf7xicQE-144" value="1" style="resizable=0;html=1;whiteSpace=wrap;align=right;verticalAlign=bottom;" connectable="0" vertex="1" parent="6db4KR-rdE-GNf7xicQE-143">
          <mxGeometry x="1" relative="1" as="geometry" />
        </mxCell>
        <mxCell id="6db4KR-rdE-GNf7xicQE-145" value="" style="endArrow=none;html=1;rounded=0;exitX=0.5;exitY=1;exitDx=0;exitDy=0;" edge="1" parent="1">
          <mxGeometry relative="1" as="geometry">
            <mxPoint x="679.66" y="690" as="sourcePoint" />
            <mxPoint x="679.66" y="740" as="targetPoint" />
          </mxGeometry>
        </mxCell>
        <mxCell id="6db4KR-rdE-GNf7xicQE-146" value="1" style="resizable=0;html=1;whiteSpace=wrap;align=right;verticalAlign=bottom;" connectable="0" vertex="1" parent="6db4KR-rdE-GNf7xicQE-145">
          <mxGeometry x="1" relative="1" as="geometry" />
        </mxCell>
        <mxCell id="6db4KR-rdE-GNf7xicQE-147" value="Group" style="whiteSpace=wrap;html=1;align=center;" vertex="1" parent="1">
          <mxGeometry x="610" y="740" width="140" height="40" as="geometry" />
        </mxCell>
        <mxCell id="6db4KR-rdE-GNf7xicQE-148" value="&lt;u style=&quot;border-color: var(--border-color);&quot;&gt;group_id&lt;/u&gt;" style="ellipse;whiteSpace=wrap;html=1;" vertex="1" parent="1">
          <mxGeometry x="465" y="740" width="100" height="40" as="geometry" />
        </mxCell>
        <mxCell id="6db4KR-rdE-GNf7xicQE-149" value="group" style="ellipse;whiteSpace=wrap;html=1;" vertex="1" parent="1">
          <mxGeometry x="810" y="740" width="90" height="40" as="geometry" />
        </mxCell>
        <mxCell id="6db4KR-rdE-GNf7xicQE-150" value="" style="endArrow=none;html=1;rounded=0;entryX=0;entryY=0.5;entryDx=0;entryDy=0;exitX=1;exitY=0.5;exitDx=0;exitDy=0;" edge="1" parent="1" source="6db4KR-rdE-GNf7xicQE-147" target="6db4KR-rdE-GNf7xicQE-149">
          <mxGeometry relative="1" as="geometry">
            <mxPoint x="630" y="640" as="sourcePoint" />
            <mxPoint x="790" y="640" as="targetPoint" />
          </mxGeometry>
        </mxCell>
        <mxCell id="6db4KR-rdE-GNf7xicQE-151" value="" style="endArrow=none;html=1;rounded=0;entryX=1;entryY=0.5;entryDx=0;entryDy=0;exitX=0;exitY=0.5;exitDx=0;exitDy=0;" edge="1" parent="1" source="6db4KR-rdE-GNf7xicQE-147" target="6db4KR-rdE-GNf7xicQE-148">
          <mxGeometry relative="1" as="geometry">
            <mxPoint x="760" y="760" as="sourcePoint" />
            <mxPoint x="800" y="730" as="targetPoint" />
          </mxGeometry>
        </mxCell>
        <mxCell id="6db4KR-rdE-GNf7xicQE-152" value="Have" style="shape=rhombus;perimeter=rhombusPerimeter;whiteSpace=wrap;html=1;align=center;" vertex="1" parent="1">
          <mxGeometry x="620" y="830" width="120" height="60" as="geometry" />
        </mxCell>
        <mxCell id="6db4KR-rdE-GNf7xicQE-158" value="" style="edgeStyle=orthogonalEdgeStyle;rounded=0;orthogonalLoop=1;jettySize=auto;html=1;" edge="1" parent="1" source="6db4KR-rdE-GNf7xicQE-153" target="6db4KR-rdE-GNf7xicQE-152">
          <mxGeometry relative="1" as="geometry" />
        </mxCell>
        <mxCell id="6db4KR-rdE-GNf7xicQE-153" value="major" style="whiteSpace=wrap;html=1;align=center;" vertex="1" parent="1">
          <mxGeometry x="610" y="940" width="140" height="40" as="geometry" />
        </mxCell>
        <mxCell id="6db4KR-rdE-GNf7xicQE-154" value="" style="endArrow=none;html=1;rounded=0;exitX=0.5;exitY=1;exitDx=0;exitDy=0;" edge="1" parent="1">
          <mxGeometry relative="1" as="geometry">
            <mxPoint x="679.5699999999999" y="780" as="sourcePoint" />
            <mxPoint x="679.5699999999999" y="830" as="targetPoint" />
          </mxGeometry>
        </mxCell>
        <mxCell id="6db4KR-rdE-GNf7xicQE-155" value="1" style="resizable=0;html=1;whiteSpace=wrap;align=right;verticalAlign=bottom;" connectable="0" vertex="1" parent="6db4KR-rdE-GNf7xicQE-154">
          <mxGeometry x="1" relative="1" as="geometry" />
        </mxCell>
        <mxCell id="6db4KR-rdE-GNf7xicQE-156" value="" style="endArrow=none;html=1;rounded=0;exitX=0.5;exitY=1;exitDx=0;exitDy=0;" edge="1" parent="1">
          <mxGeometry relative="1" as="geometry">
            <mxPoint x="679.5699999999999" y="890" as="sourcePoint" />
            <mxPoint x="679.5699999999999" y="940" as="targetPoint" />
          </mxGeometry>
        </mxCell>
        <mxCell id="6db4KR-rdE-GNf7xicQE-157" value="N" style="resizable=0;html=1;whiteSpace=wrap;align=right;verticalAlign=bottom;" connectable="0" vertex="1" parent="6db4KR-rdE-GNf7xicQE-156">
          <mxGeometry x="1" relative="1" as="geometry" />
        </mxCell>
        <mxCell id="6db4KR-rdE-GNf7xicQE-159" value="&lt;u style=&quot;border-color: var(--border-color);&quot;&gt;major_id&lt;/u&gt;" style="ellipse;whiteSpace=wrap;html=1;" vertex="1" parent="1">
          <mxGeometry x="450" y="940" width="100" height="40" as="geometry" />
        </mxCell>
        <mxCell id="6db4KR-rdE-GNf7xicQE-160" value="group_id" style="ellipse;whiteSpace=wrap;html=1;" vertex="1" parent="1">
          <mxGeometry x="795" y="940" width="90" height="40" as="geometry" />
        </mxCell>
        <mxCell id="6db4KR-rdE-GNf7xicQE-161" value="major" style="ellipse;whiteSpace=wrap;html=1;" vertex="1" parent="1">
          <mxGeometry x="460" y="1030" width="90" height="40" as="geometry" />
        </mxCell>
        <mxCell id="6db4KR-rdE-GNf7xicQE-162" value="grade" style="ellipse;whiteSpace=wrap;html=1;" vertex="1" parent="1">
          <mxGeometry x="785" y="1030" width="90" height="40" as="geometry" />
        </mxCell>
        <mxCell id="6db4KR-rdE-GNf7xicQE-163" value="" style="endArrow=none;html=1;rounded=0;entryX=0;entryY=0.5;entryDx=0;entryDy=0;exitX=1;exitY=0.5;exitDx=0;exitDy=0;" edge="1" parent="1" source="6db4KR-rdE-GNf7xicQE-153" target="6db4KR-rdE-GNf7xicQE-160">
          <mxGeometry relative="1" as="geometry">
            <mxPoint x="760" y="770" as="sourcePoint" />
            <mxPoint x="820" y="770" as="targetPoint" />
          </mxGeometry>
        </mxCell>
        <mxCell id="6db4KR-rdE-GNf7xicQE-164" value="" style="endArrow=none;html=1;rounded=0;exitX=1;exitY=0.5;exitDx=0;exitDy=0;" edge="1" parent="1" source="6db4KR-rdE-GNf7xicQE-159">
          <mxGeometry relative="1" as="geometry">
            <mxPoint x="760" y="970" as="sourcePoint" />
            <mxPoint x="610" y="960" as="targetPoint" />
          </mxGeometry>
        </mxCell>
        <mxCell id="6db4KR-rdE-GNf7xicQE-165" value="" style="endArrow=none;html=1;rounded=0;exitX=1;exitY=0.5;exitDx=0;exitDy=0;entryX=0;entryY=1;entryDx=0;entryDy=0;" edge="1" parent="1" source="6db4KR-rdE-GNf7xicQE-161" target="6db4KR-rdE-GNf7xicQE-153">
          <mxGeometry relative="1" as="geometry">
            <mxPoint x="560" y="970" as="sourcePoint" />
            <mxPoint x="620" y="970" as="targetPoint" />
          </mxGeometry>
        </mxCell>
        <mxCell id="6db4KR-rdE-GNf7xicQE-166" value="" style="endArrow=none;html=1;rounded=0;exitX=0;exitY=0;exitDx=0;exitDy=0;entryX=1;entryY=1;entryDx=0;entryDy=0;" edge="1" parent="1" source="6db4KR-rdE-GNf7xicQE-162" target="6db4KR-rdE-GNf7xicQE-153">
          <mxGeometry relative="1" as="geometry">
            <mxPoint x="560" y="1060" as="sourcePoint" />
            <mxPoint x="620" y="990" as="targetPoint" />
          </mxGeometry>
        </mxCell>
        <mxCell id="6db4KR-rdE-GNf7xicQE-167" value="Have" style="shape=rhombus;perimeter=rhombusPerimeter;whiteSpace=wrap;html=1;align=center;" vertex="1" parent="1">
          <mxGeometry x="1650" y="320" width="120" height="60" as="geometry" />
        </mxCell>
        <mxCell id="6db4KR-rdE-GNf7xicQE-168" value="" style="shape=link;html=1;rounded=0;exitX=0.75;exitY=0;exitDx=0;exitDy=0;entryX=0;entryY=0.5;entryDx=0;entryDy=0;" edge="1" parent="1" source="6db4KR-rdE-GNf7xicQE-2" target="6db4KR-rdE-GNf7xicQE-167">
          <mxGeometry relative="1" as="geometry">
            <mxPoint x="570" y="320" as="sourcePoint" />
            <mxPoint x="1210" y="320" as="targetPoint" />
          </mxGeometry>
        </mxCell>
        <mxCell id="6db4KR-rdE-GNf7xicQE-169" value="1" style="resizable=0;html=1;whiteSpace=wrap;align=right;verticalAlign=bottom;" connectable="0" vertex="1" parent="6db4KR-rdE-GNf7xicQE-168">
          <mxGeometry x="1" relative="1" as="geometry">
            <mxPoint y="-10" as="offset" />
          </mxGeometry>
        </mxCell>
        <mxCell id="6db4KR-rdE-GNf7xicQE-170" value="education_student" style="whiteSpace=wrap;html=1;align=center;" vertex="1" parent="1">
          <mxGeometry x="1640" y="470" width="140" height="40" as="geometry" />
        </mxCell>
        <mxCell id="6db4KR-rdE-GNf7xicQE-171" value="educational_qualification" style="ellipse;whiteSpace=wrap;html=1;align=center;" vertex="1" parent="1">
          <mxGeometry x="1370" y="470" width="160" height="40" as="geometry" />
        </mxCell>
        <mxCell id="6db4KR-rdE-GNf7xicQE-174" style="edgeStyle=orthogonalEdgeStyle;rounded=0;orthogonalLoop=1;jettySize=auto;html=1;exitX=0.5;exitY=1;exitDx=0;exitDy=0;" edge="1" parent="1" source="6db4KR-rdE-GNf7xicQE-116" target="6db4KR-rdE-GNf7xicQE-116">
          <mxGeometry relative="1" as="geometry" />
        </mxCell>
        <mxCell id="6db4KR-rdE-GNf7xicQE-177" value="&lt;a style=&quot;border-color: var(--border-color); text-decoration-line: none; color: rgb(0, 0, 0); cursor: pointer; outline: none; line-height: 1.5em; height: 1.5em; padding-left: 0.3em; position: relative; z-index: 100; vertical-align: sub; font-family: sans-serif; font-size: 13.12px; text-align: left; background-color: rgb(243, 243, 243);&quot; title=&quot;Browse&quot; href=&quot;http://localhost/phpmyadmin/sql.php?server=1&amp;amp;db=db2022_project&amp;amp;table=stady_plan&amp;amp;pos=0&quot; class=&quot;hover_show_full&quot;&gt;stady_plan&lt;/a&gt;" style="ellipse;whiteSpace=wrap;html=1;align=center;" vertex="1" parent="1">
          <mxGeometry x="1440" y="400" width="100" height="40" as="geometry" />
        </mxCell>
        <mxCell id="6db4KR-rdE-GNf7xicQE-181" value="" style="endArrow=none;html=1;rounded=0;entryX=0;entryY=1;entryDx=0;entryDy=0;exitX=1;exitY=0;exitDx=0;exitDy=0;" edge="1" parent="1" source="6db4KR-rdE-GNf7xicQE-171" target="6db4KR-rdE-GNf7xicQE-170">
          <mxGeometry relative="1" as="geometry">
            <mxPoint x="1320" y="720" as="sourcePoint" />
            <mxPoint x="1430" y="700" as="targetPoint" />
          </mxGeometry>
        </mxCell>
        <mxCell id="6db4KR-rdE-GNf7xicQE-182" value="" style="endArrow=none;html=1;rounded=0;entryX=0;entryY=0.5;entryDx=0;entryDy=0;exitX=1;exitY=0.5;exitDx=0;exitDy=0;" edge="1" parent="1" source="6db4KR-rdE-GNf7xicQE-177" target="6db4KR-rdE-GNf7xicQE-170">
          <mxGeometry relative="1" as="geometry">
            <mxPoint x="1607" y="526" as="sourcePoint" />
            <mxPoint x="1650" y="520" as="targetPoint" />
          </mxGeometry>
        </mxCell>
        <mxCell id="6db4KR-rdE-GNf7xicQE-183" value="" style="shape=link;html=1;rounded=0;exitX=0.5;exitY=1;exitDx=0;exitDy=0;entryX=0.5;entryY=0;entryDx=0;entryDy=0;" edge="1" parent="1" source="6db4KR-rdE-GNf7xicQE-167" target="6db4KR-rdE-GNf7xicQE-170">
          <mxGeometry relative="1" as="geometry">
            <mxPoint x="548" y="290" as="sourcePoint" />
            <mxPoint x="1660" y="360" as="targetPoint" />
          </mxGeometry>
        </mxCell>
        <mxCell id="6db4KR-rdE-GNf7xicQE-184" value="1" style="resizable=0;html=1;whiteSpace=wrap;align=right;verticalAlign=bottom;" connectable="0" vertex="1" parent="6db4KR-rdE-GNf7xicQE-183">
          <mxGeometry x="1" relative="1" as="geometry">
            <mxPoint y="-10" as="offset" />
          </mxGeometry>
        </mxCell>
        <mxCell id="6db4KR-rdE-GNf7xicQE-185" value="school" style="ellipse;whiteSpace=wrap;html=1;align=center;" vertex="1" parent="1">
          <mxGeometry x="1480" y="570" width="160" height="40" as="geometry" />
        </mxCell>
        <mxCell id="6db4KR-rdE-GNf7xicQE-186" value="Average_GPA" style="ellipse;whiteSpace=wrap;html=1;align=center;" vertex="1" parent="1">
          <mxGeometry x="1670" y="580" width="160" height="40" as="geometry" />
        </mxCell>
        <mxCell id="6db4KR-rdE-GNf7xicQE-187" value="" style="endArrow=none;html=1;rounded=0;entryX=0.25;entryY=1;entryDx=0;entryDy=0;exitX=0.5;exitY=0;exitDx=0;exitDy=0;" edge="1" parent="1" source="6db4KR-rdE-GNf7xicQE-185" target="6db4KR-rdE-GNf7xicQE-170">
          <mxGeometry relative="1" as="geometry">
            <mxPoint x="1607" y="526" as="sourcePoint" />
            <mxPoint x="1650" y="520" as="targetPoint" />
          </mxGeometry>
        </mxCell>
        <mxCell id="6db4KR-rdE-GNf7xicQE-188" value="" style="endArrow=none;html=1;rounded=0;entryX=0.5;entryY=1;entryDx=0;entryDy=0;exitX=0.5;exitY=0;exitDx=0;exitDy=0;" edge="1" parent="1" source="6db4KR-rdE-GNf7xicQE-186" target="6db4KR-rdE-GNf7xicQE-170">
          <mxGeometry relative="1" as="geometry">
            <mxPoint x="1640" y="590" as="sourcePoint" />
            <mxPoint x="1685" y="520" as="targetPoint" />
          </mxGeometry>
        </mxCell>
        <mxCell id="6db4KR-rdE-GNf7xicQE-189" value="file" style="ellipse;whiteSpace=wrap;html=1;align=center;" vertex="1" parent="1">
          <mxGeometry x="1750" y="400" width="90" height="40" as="geometry" />
        </mxCell>
        <mxCell id="6db4KR-rdE-GNf7xicQE-190" value="" style="endArrow=none;html=1;rounded=0;entryX=0;entryY=1;entryDx=0;entryDy=0;exitX=0.75;exitY=0;exitDx=0;exitDy=0;" edge="1" parent="1" source="6db4KR-rdE-GNf7xicQE-170" target="6db4KR-rdE-GNf7xicQE-189">
          <mxGeometry relative="1" as="geometry">
            <mxPoint x="1770" y="560" as="sourcePoint" />
            <mxPoint x="1720" y="520" as="targetPoint" />
          </mxGeometry>
        </mxCell>
      </root>
    </mxGraphModel>
  </diagram>
</mxfile>
